<svg xmlns="http://www.w3.org/2000/svg" width="154" height="29" viewBox="0 0 154 29" fill="none"><path d="M5.893 28.408C5.893 28.1307 5.83967 27.992 5.733 27.992L4.997 28.344C4.997 28.1947 4.91167 28.088 4.741 28.024L4.485 27.992C4.31434 27.992 4.101 28.0667 3.845 28.216C3.80234 28.1093 3.749 28.0027 3.685 27.896C3.621 27.7893 3.56767 27.6933 3.525 27.608C3.24767 27.0747 2.97034 26.488 2.693 25.848C2.437 25.1867 2.19167 24.5573 1.957 23.96C1.74367 23.3627 1.573 22.8933 1.445 22.552C1.35967 22.2747 1.26367 21.8587 1.157 21.304C1.05034 20.7493 0.943669 20.0453 0.837002 19.192C1.07167 19.3413 1.253 19.416 1.381 19.416C1.53034 19.416 1.669 19.192 1.797 18.744C1.861 18.8293 1.97834 18.872 2.149 18.872C2.277 18.872 2.373 18.8293 2.437 18.744L2.949 17.976L3.525 18.168H3.557C3.59967 18.168 3.64234 18.1467 3.685 18.104C3.72767 18.0613 3.79167 18.0187 3.877 17.976C4.04767 17.8693 4.17567 17.816 4.261 17.816L4.357 17.848C4.89034 18.104 5.23167 18.5733 5.381 19.256C5.765 20.8773 6.149 21.688 6.533 21.688C6.917 21.688 7.365 21.2827 7.877 20.472C8.133 20.0667 8.389 19.5973 8.645 19.064C8.92234 18.5307 9.19967 17.9333 9.477 17.272C9.51967 17.528 9.56234 17.656 9.605 17.656C9.71167 17.656 9.893 17.3893 10.149 16.856C10.4263 16.3227 10.8637 15.5867 11.461 14.648C11.8023 14.072 12.229 13.4213 12.741 12.696C13.2743 11.9707 13.8397 11.224 14.437 10.456C15.0343 9.688 15.6103 8.96267 16.165 8.28C16.741 7.59733 17.253 7.01067 17.701 6.52C18.149 6.02933 18.4797 5.70933 18.693 5.56C19.5037 5.00533 20.1437 4.472 20.613 3.96C20.5917 4.10933 20.5597 4.248 20.517 4.376C20.4957 4.48267 20.485 4.55733 20.485 4.6C20.485 4.68533 20.5277 4.728 20.613 4.728L21.509 4.28V4.408C21.509 4.57867 21.5517 4.664 21.637 4.664C21.701 4.664 21.829 4.568 22.021 4.376C22.213 4.184 22.3197 4.04533 22.341 3.96L22.277 4.408L23.365 3.768L23.109 4.344C23.4503 4.10933 23.6957 3.992 23.845 3.992C23.9303 3.992 23.9943 4.04533 24.037 4.152C24.0797 4.23733 24.101 4.32267 24.101 4.408C24.101 4.536 24.0477 4.68533 23.941 4.856C23.8343 5.02667 23.6957 5.22933 23.525 5.464C23.397 5.63467 23.1837 5.89067 22.885 6.232C22.6077 6.552 22.181 7.032 21.605 7.672C21.029 8.29067 20.261 9.15467 19.301 10.264C19.045 10.5413 18.6503 11.032 18.117 11.736C17.5837 12.4187 16.9757 13.2187 16.293 14.136C15.6317 15.032 14.9703 15.9387 14.309 16.856C13.6477 17.7733 13.061 18.6053 12.549 19.352C12.037 20.0773 11.6743 20.6213 11.461 20.984L9.477 24.344C9.05034 25.0693 8.69834 25.6667 8.421 26.136C8.14367 26.584 7.93034 26.8933 7.781 27.064C7.461 27.448 7.109 27.7893 6.725 28.088L6.437 27.928L6.181 28.088L5.893 28.408Z" fill="#A1411E"></path><path d="M25.4803 27V26.328L28.6163 25.048L37.8643 0.759998H38.3763L47.1123 25.848L50.0563 26.328V27H40.6483V26.328L43.2723 25.912L40.5523 18.328H32.0403L29.4483 25.048L32.3283 26.328V27H25.4803ZM32.2963 17.656H40.3283L36.4883 6.392L32.2963 17.656ZM50.8803 26.36L53.1203 26.04V11.384L50.8803 11.064V10.424H56.3203V12.888C57.6643 11.0533 59.1789 10.136 60.8643 10.136C61.6749 10.136 62.3896 10.3493 63.0083 10.776C63.6269 11.1813 63.9363 11.768 63.9363 12.536C63.9363 13.0907 63.7549 13.56 63.3923 13.944C63.0296 14.3067 62.5496 14.488 61.9523 14.488C61.2696 14.488 60.7149 14.2213 60.2883 13.688C60.5229 13.3893 60.6403 13.0693 60.6403 12.728C60.6403 12.3653 60.5123 12.0773 60.2563 11.864C60.0216 11.6293 59.7016 11.512 59.2963 11.512C58.8483 11.512 58.3896 11.7253 57.9203 12.152C57.4509 12.5573 56.9176 13.1973 56.3203 14.072V26.04L58.8803 26.36V27H50.8803V26.36ZM70.9565 27.32C69.5912 27.32 68.4712 26.968 67.5965 26.264C66.7218 25.5387 66.2845 24.472 66.2845 23.064C66.2845 21.0587 67.1272 19.64 68.8125 18.808C70.4978 17.9547 72.4498 17.528 74.6685 17.528H76.8125V15.064C76.8125 13.9547 76.6845 13.1013 76.4285 12.504C76.1938 11.8853 75.8205 11.4587 75.3085 11.224C74.7965 10.968 74.1032 10.84 73.2285 10.84C72.2258 10.84 71.4792 11.0427 70.9885 11.448C70.4978 11.832 70.2525 12.3547 70.2525 13.016C70.2525 13.6347 70.5512 14.04 71.1485 14.232C71.1485 14.7653 70.9458 15.2347 70.5405 15.64C70.1352 16.0453 69.6552 16.248 69.1005 16.248C68.5032 16.248 68.0232 16.088 67.6605 15.768C67.2978 15.4267 67.1165 14.9147 67.1165 14.232C67.1165 12.9947 67.7352 12.0027 68.9725 11.256C70.2098 10.5093 71.7565 10.136 73.6125 10.136C77.8792 10.136 80.0125 11.992 80.0125 15.704V24.856C80.0125 25.3253 80.1085 25.688 80.3005 25.944C80.5138 26.1787 80.8125 26.296 81.1965 26.296C81.5592 26.296 81.8472 26.1787 82.0605 25.944C82.2738 25.688 82.3805 25.3467 82.3805 24.92H83.0525C83.0525 25.6667 82.8072 26.2533 82.3165 26.68C81.8472 27.1067 81.1858 27.32 80.3325 27.32C79.3512 27.32 78.5192 27.0427 77.8365 26.488C77.1752 25.912 76.8338 25.0267 76.8125 23.832C76.3005 24.92 75.5112 25.7733 74.4445 26.392C73.3992 27.0107 72.2365 27.32 70.9565 27.32ZM72.7165 25.912C73.2925 25.912 73.8792 25.7413 74.4765 25.4C75.0952 25.0587 75.6178 24.568 76.0445 23.928C76.4712 23.2667 76.7272 22.4773 76.8125 21.56V18.232H74.6685C72.9192 18.232 71.6072 18.6267 70.7325 19.416C69.8792 20.184 69.4525 21.272 69.4525 22.68C69.4525 23.8533 69.7298 24.6853 70.2845 25.176C70.8392 25.6667 71.6498 25.912 72.7165 25.912ZM84.4727 26.36L86.7127 26.04V11.384L84.4727 11.064V10.424H89.9127V13.368C90.6807 12.3653 91.5447 11.576 92.5048 11C93.4861 10.424 94.5421 10.136 95.6727 10.136C96.9741 10.136 98.0301 10.424 98.8407 11C99.6728 11.5547 100.195 12.3973 100.409 13.528C101.177 12.4827 102.051 11.6613 103.033 11.064C104.014 10.4453 105.091 10.136 106.265 10.136C107.779 10.136 108.953 10.52 109.785 11.288C110.638 12.0347 111.065 13.176 111.065 14.712V26.04L113.305 26.36V27H105.945V26.36L107.865 26.04V14.776C107.865 13.6453 107.662 12.7813 107.257 12.184C106.851 11.5867 106.19 11.288 105.273 11.288C104.398 11.288 103.545 11.5867 102.713 12.184C101.902 12.7813 101.166 13.5493 100.505 14.488V26.04L102.425 26.36V27H95.3527V26.36L97.2727 26.04V14.776C97.2727 13.6453 97.0701 12.7813 96.6648 12.184C96.2594 11.5867 95.5981 11.288 94.6807 11.288C93.8061 11.288 92.9527 11.5867 92.1207 12.184C91.3101 12.7813 90.5741 13.5493 89.9127 14.488V26.04L91.8327 26.36V27H84.4727V26.36ZM115.394 26.36L117.634 26.04V11.384L115.394 11.064V10.424H120.834V13.88C121.623 12.728 122.551 11.8213 123.618 11.16C124.685 10.4773 125.837 10.136 127.074 10.136C128.61 10.136 129.815 10.52 130.69 11.288C131.586 12.056 132.034 13.1973 132.034 14.712V26.04L134.274 26.36V27H126.914V26.36L128.834 26.04V14.776C128.834 13.6667 128.61 12.8133 128.162 12.216C127.714 11.5973 127.021 11.288 126.082 11.288C125.101 11.288 124.151 11.6507 123.234 12.376C122.338 13.08 121.538 13.9547 120.834 15V26.04L122.754 26.36V27H115.394V26.36ZM145.146 27.32C143.61 27.32 142.213 26.968 140.954 26.264C139.696 25.5387 138.693 24.5253 137.946 23.224C137.221 21.9013 136.858 20.3973 136.858 18.712C136.858 17.0267 137.221 15.5333 137.946 14.232C138.693 12.9307 139.696 11.928 140.954 11.224C142.213 10.4987 143.61 10.136 145.146 10.136C146.682 10.136 148.08 10.4987 149.338 11.224C150.597 11.928 151.589 12.9307 152.314 14.232C153.061 15.5333 153.434 17.0267 153.434 18.712C153.434 20.3973 153.061 21.9013 152.314 23.224C151.589 24.5253 150.597 25.5387 149.338 26.264C148.08 26.968 146.682 27.32 145.146 27.32ZM145.146 26.616C146.725 26.616 147.909 26.04 148.698 24.888C149.509 23.736 149.914 22.2107 149.914 20.312V17.112C149.914 15.2133 149.509 13.6987 148.698 12.568C147.909 11.416 146.725 10.84 145.146 10.84C143.568 10.84 142.373 11.416 141.562 12.568C140.773 13.6987 140.378 15.2133 140.378 17.112V20.312C140.378 22.2107 140.773 23.736 141.562 24.888C142.373 26.04 143.568 26.616 145.146 26.616Z" fill="#146655"></path></svg>