<svg xmlns="http://www.w3.org/2000/svg" width="144" height="51" viewBox="0 0 144 51" fill="none"><path d="M15.0753 31.512C13.2513 31.512 11.5553 31.1653 9.98726 30.472C8.41925 29.768 7.04325 28.7973 5.85925 27.56C4.68592 26.312 3.76859 24.856 3.10725 23.192C2.45659 21.528 2.13125 19.736 2.13125 17.816C2.13125 15.992 2.43525 14.2587 3.04325 12.616C3.65125 10.9627 4.53125 9.50133 5.68325 8.232C6.83525 6.96267 8.22725 5.96 9.85925 5.224C11.5019 4.488 13.3473 4.12 15.3953 4.12C16.6326 4.12 17.8433 4.264 19.0273 4.552C20.2113 4.84 21.3259 5.25067 22.3713 5.784C23.4273 6.31733 24.3766 6.96267 25.2193 7.72L23.2033 10.952C22.2433 9.992 21.0699 9.24 19.6833 8.696C18.2966 8.14133 16.8779 7.864 15.4273 7.864C14.0299 7.864 12.7873 8.11467 11.6993 8.616C10.6113 9.11733 9.68859 9.82133 8.93125 10.728C8.18459 11.624 7.61392 12.664 7.21925 13.848C6.83525 15.0213 6.64325 16.2853 6.64325 17.64C6.64325 19.1013 6.86192 20.4453 7.29925 21.672C7.73659 22.888 8.34459 23.9493 9.12325 24.856C9.91259 25.752 10.8299 26.4453 11.8753 26.936C12.9206 27.416 14.0459 27.656 15.2513 27.656C16.2326 27.656 17.1819 27.496 18.0993 27.176C19.0166 26.856 19.8379 26.3973 20.5633 25.8C21.2886 25.2027 21.8646 24.4933 22.2913 23.672C22.7179 22.8507 22.9313 21.944 22.9313 20.952V20.376H14.9953V17.096H27.2033V20.504C27.2033 22.2107 26.8619 23.7413 26.1793 25.096C25.4966 26.4507 24.5739 27.608 23.4113 28.568C22.2593 29.5173 20.9633 30.248 19.5233 30.76C18.0833 31.2613 16.6006 31.512 15.0753 31.512ZM30.313 31V14.616H34.297V17C34.873 16.0613 35.593 15.3467 36.457 14.856C37.321 14.3547 38.2703 14.104 39.305 14.104C39.849 14.104 40.4037 14.1787 40.969 14.328C41.545 14.4667 42.0357 14.6533 42.441 14.888L40.793 18.264C40.441 18.0507 40.0303 17.88 39.561 17.752C39.1023 17.624 38.6757 17.56 38.281 17.56C37.5983 17.56 36.953 17.736 36.345 18.088C35.737 18.44 35.241 18.8933 34.857 19.448C34.4837 20.0027 34.297 20.6 34.297 21.24V31H30.313ZM50.4765 31.512C48.9618 31.512 47.5858 31.1387 46.3485 30.392C45.1218 29.6347 44.1458 28.6 43.4205 27.288C42.7058 25.976 42.3485 24.4773 42.3485 22.792C42.3485 21.128 42.6952 19.6453 43.3885 18.344C44.0925 17.032 45.0578 15.9973 46.2845 15.24C47.5112 14.4827 48.9085 14.104 50.4765 14.104C51.7565 14.104 52.9352 14.3707 54.0125 14.904C55.0898 15.4373 55.9432 16.1787 56.5725 17.128V14.616H60.5565V31H56.5725V28.376C55.8472 29.368 54.9565 30.1413 53.9005 30.696C52.8552 31.24 51.7138 31.512 50.4765 31.512ZM51.6125 28.104C52.6045 28.104 53.4792 27.88 54.2365 27.432C54.9938 26.9733 55.5912 26.344 56.0285 25.544C56.4658 24.744 56.6845 23.832 56.6845 22.808C56.6845 21.7733 56.4658 20.8613 56.0285 20.072C55.5912 19.272 54.9938 18.648 54.2365 18.2C53.4792 17.7413 52.6045 17.512 51.6125 17.512C50.6312 17.512 49.7565 17.7413 48.9885 18.2C48.2205 18.648 47.6178 19.272 47.1805 20.072C46.7432 20.872 46.5245 21.784 46.5245 22.808C46.5245 23.832 46.7432 24.744 47.1805 25.544C47.6178 26.344 48.2205 26.9733 48.9885 27.432C49.7565 27.88 50.6312 28.104 51.6125 28.104ZM64.8168 31V14.616H68.8008V16.584C69.3661 15.8587 70.1181 15.2667 71.0568 14.808C72.0061 14.3387 73.0888 14.104 74.3048 14.104C75.5634 14.104 76.6621 14.376 77.6008 14.92C78.5501 15.4533 79.2861 16.2107 79.8088 17.192C80.3314 18.1733 80.5928 19.336 80.5928 20.68V31H76.6088V21.512C76.6088 20.1467 76.2674 19.096 75.5848 18.36C74.9128 17.6133 73.9794 17.24 72.7848 17.24C71.9634 17.24 71.2541 17.4107 70.6568 17.752C70.0594 18.0827 69.6008 18.5307 69.2808 19.096C68.9608 19.6507 68.8008 20.2693 68.8008 20.952V31H64.8168ZM91.417 31.512C89.9237 31.512 88.5583 31.1387 87.321 30.392C86.0943 29.6453 85.1183 28.616 84.393 27.304C83.6783 25.992 83.321 24.4933 83.321 22.808C83.321 21.1333 83.673 19.6453 84.377 18.344C85.0917 17.032 86.0623 15.9973 87.289 15.24C88.5263 14.4827 89.9343 14.104 91.513 14.104C92.7717 14.104 93.929 14.3707 94.985 14.904C96.041 15.4373 96.8943 16.1787 97.545 17.128V3.464H101.529V31H97.545V28.376C96.8303 29.3573 95.9397 30.1253 94.873 30.68C93.817 31.2347 92.665 31.512 91.417 31.512ZM92.569 28.104C93.561 28.104 94.4357 27.88 95.193 27.432C95.961 26.9733 96.5637 26.3493 97.001 25.56C97.4383 24.76 97.657 23.848 97.657 22.824C97.657 21.8 97.4383 20.888 97.001 20.088C96.5637 19.2773 95.961 18.648 95.193 18.2C94.4357 17.7413 93.561 17.512 92.569 17.512C91.5983 17.512 90.729 17.7413 89.961 18.2C89.193 18.648 88.5903 19.2773 88.153 20.088C87.7157 20.888 87.497 21.8053 87.497 22.84C87.497 23.8533 87.7103 24.76 88.137 25.56C88.5743 26.3493 89.177 26.9733 89.945 27.432C90.713 27.88 91.5877 28.104 92.569 28.104ZM113.597 31.512C111.848 31.512 110.28 31.1333 108.893 30.376C107.517 29.6187 106.424 28.584 105.613 27.272C104.813 25.96 104.413 24.4827 104.413 22.84C104.413 21.624 104.643 20.488 105.101 19.432C105.56 18.376 106.195 17.448 107.005 16.648C107.816 15.848 108.76 15.224 109.837 14.776C110.915 14.328 112.077 14.104 113.325 14.104C115.032 14.104 116.525 14.456 117.805 15.16C119.096 15.864 120.099 16.8453 120.813 18.104C121.539 19.3627 121.901 20.8293 121.901 22.504C121.901 22.6427 121.896 22.76 121.885 22.856C121.875 22.9413 121.853 23.0907 121.821 23.304H108.477C108.477 24.296 108.701 25.1707 109.149 25.928C109.597 26.6747 110.221 27.2613 111.021 27.688C111.832 28.104 112.76 28.312 113.805 28.312C114.797 28.312 115.677 28.1147 116.445 27.72C117.224 27.3147 117.928 26.7013 118.557 25.88L121.453 27.368C120.675 28.6693 119.592 29.688 118.205 30.424C116.829 31.1493 115.293 31.512 113.597 31.512ZM108.653 20.808H117.949C117.811 20.0613 117.528 19.416 117.101 18.872C116.675 18.328 116.136 17.9067 115.485 17.608C114.835 17.2987 114.109 17.144 113.309 17.144C112.467 17.144 111.715 17.2933 111.053 17.592C110.392 17.8907 109.853 18.312 109.437 18.856C109.021 19.4 108.76 20.0507 108.653 20.808ZM132.855 31.512C131.084 31.512 129.484 31.144 128.055 30.408C126.636 29.672 125.511 28.648 124.679 27.336C123.847 26.024 123.431 24.5147 123.431 22.808C123.431 21.0907 123.847 19.5813 124.679 18.28C125.511 16.968 126.636 15.944 128.055 15.208C129.473 14.472 131.073 14.104 132.855 14.104C134.625 14.104 136.22 14.472 137.639 15.208C139.068 15.944 140.193 16.968 141.015 18.28C141.847 19.5813 142.263 21.0907 142.263 22.808C142.263 24.5147 141.847 26.024 141.015 27.336C140.193 28.648 139.068 29.672 137.639 30.408C136.22 31.144 134.625 31.512 132.855 31.512ZM132.855 28.088C133.857 28.088 134.753 27.864 135.543 27.416C136.343 26.9573 136.972 26.3333 137.431 25.544C137.889 24.744 138.119 23.832 138.119 22.808C138.119 21.7733 137.889 20.8613 137.431 20.072C136.972 19.272 136.343 18.648 135.543 18.2C134.753 17.752 133.857 17.528 132.855 17.528C131.863 17.528 130.967 17.752 130.167 18.2C129.367 18.648 128.737 19.272 128.279 20.072C127.82 20.8613 127.591 21.7733 127.591 22.808C127.591 23.832 127.82 24.744 128.279 25.544C128.737 26.3333 129.367 26.9573 130.167 27.416C130.967 27.864 131.863 28.088 132.855 28.088Z" fill="#A1411E"></path><path d="M48.0018 46.208C47.4645 46.208 46.9857 46.1343 46.5653 45.987C46.145 45.8353 45.7832 45.6512 45.4798 45.4345C45.1765 45.2178 44.9273 45.0055 44.7323 44.7975C44.5373 44.5852 44.3943 44.4183 44.3033 44.297L45.0248 43.27C45.1245 43.3913 45.2588 43.5473 45.4278 43.738C45.5968 43.9287 45.8048 44.1193 46.0518 44.31C46.2988 44.5007 46.587 44.661 46.9163 44.791C47.2457 44.921 47.6183 44.986 48.0343 44.986C48.4287 44.986 48.7862 44.9167 49.1068 44.778C49.4275 44.6393 49.6832 44.4335 49.8738 44.1605C50.0688 43.8875 50.1663 43.5495 50.1663 43.1465C50.1663 42.8042 50.097 42.5138 49.9583 42.2755C49.8197 42.0328 49.6268 41.8248 49.3798 41.6515C49.1328 41.4782 48.8447 41.32 48.5153 41.177C48.186 41.0297 47.8307 40.8823 47.4493 40.735C47.1807 40.6267 46.9077 40.501 46.6303 40.358C46.353 40.2107 46.0973 40.033 45.8633 39.825C45.6293 39.6127 45.4408 39.3613 45.2978 39.071C45.1548 38.7807 45.0833 38.4383 45.0833 38.044C45.0833 37.6453 45.1592 37.2683 45.3108 36.913C45.4625 36.5577 45.677 36.2435 45.9543 35.9705C46.2317 35.6932 46.561 35.4765 46.9423 35.3205C47.328 35.1602 47.7548 35.08 48.2228 35.08C48.6388 35.08 49.031 35.145 49.3993 35.275C49.772 35.405 50.1035 35.5718 50.3938 35.7755C50.6842 35.9748 50.916 36.185 51.0893 36.406L50.4718 37.3745C50.3288 37.1882 50.1468 37.0127 49.9258 36.848C49.7048 36.679 49.4513 36.5425 49.1653 36.4385C48.8793 36.3345 48.5717 36.2825 48.2423 36.2825C47.8393 36.2825 47.497 36.367 47.2153 36.536C46.938 36.7007 46.7257 36.9152 46.5783 37.1795C46.431 37.4438 46.3573 37.7255 46.3573 38.0245C46.3573 38.2932 46.4115 38.5207 46.5198 38.707C46.6325 38.8933 46.782 39.0515 46.9683 39.1815C47.1547 39.3115 47.3648 39.4263 47.5988 39.526C47.8328 39.6257 48.0733 39.721 48.3203 39.812C48.7623 39.9853 49.1805 40.1652 49.5748 40.3515C49.9692 40.5335 50.3158 40.748 50.6148 40.995C50.9138 41.2377 51.1478 41.5302 51.3168 41.8725C51.4902 42.2148 51.5768 42.6287 51.5768 43.114C51.5768 43.7683 51.4208 44.3273 51.1088 44.791C50.8012 45.2503 50.3787 45.6013 49.8413 45.844C49.304 46.0867 48.6908 46.208 48.0018 46.208ZM58.1713 46V36.458H55.0643V35.275H62.6043V36.458H59.4908V46H58.1713ZM71.7458 46.208C70.9962 46.208 70.2942 46.065 69.6398 45.779C68.9855 45.493 68.4113 45.0965 67.9173 44.5895C67.4233 44.0782 67.0355 43.4867 66.7538 42.815C66.4765 42.139 66.3378 41.4153 66.3378 40.644C66.3378 39.8683 66.4765 39.1447 66.7538 38.473C67.0355 37.8013 67.4233 37.212 67.9173 36.705C68.4113 36.1937 68.9855 35.795 69.6398 35.509C70.2942 35.223 70.9962 35.08 71.7458 35.08C72.4955 35.08 73.1975 35.223 73.8518 35.509C74.5062 35.795 75.0803 36.1937 75.5743 36.705C76.0683 37.212 76.454 37.8013 76.7313 38.473C77.013 39.1447 77.1538 39.8683 77.1538 40.644C77.1538 41.4153 77.013 42.139 76.7313 42.815C76.454 43.4867 76.0683 44.0782 75.5743 44.5895C75.0803 45.0965 74.5062 45.493 73.8518 45.779C73.1975 46.065 72.4955 46.208 71.7458 46.208ZM71.7458 44.934C72.3092 44.934 72.8313 44.8257 73.3123 44.609C73.7977 44.3923 74.2202 44.0912 74.5798 43.7055C74.9438 43.3155 75.2255 42.8605 75.4248 42.3405C75.6285 41.8162 75.7303 41.2507 75.7303 40.644C75.7303 40.0373 75.6285 39.474 75.4248 38.954C75.2255 38.4297 74.9438 37.9747 74.5798 37.589C74.2202 37.199 73.7977 36.8957 73.3123 36.679C72.8313 36.4623 72.3092 36.354 71.7458 36.354C71.1825 36.354 70.6582 36.4623 70.1728 36.679C69.6918 36.8957 69.2693 37.199 68.9053 37.589C68.5457 37.9747 68.264 38.4297 68.0603 38.954C67.861 39.474 67.7613 40.0373 67.7613 40.644C67.7613 41.2507 67.861 41.8162 68.0603 42.3405C68.264 42.8605 68.5457 43.3155 68.9053 43.7055C69.2693 44.0912 69.6918 44.3923 70.1728 44.609C70.6582 44.8257 71.1825 44.934 71.7458 44.934ZM82.3921 46V35.275H85.4341C86.1448 35.275 86.7601 35.3985 87.2801 35.6455C87.8001 35.8925 88.201 36.2478 88.4826 36.7115C88.7686 37.1708 88.9116 37.7233 88.9116 38.369C88.9116 38.9323 88.8011 39.4328 88.5801 39.8705C88.3591 40.3082 88.0428 40.6657 87.6311 40.943C87.2238 41.2203 86.7363 41.4023 86.1686 41.489L89.7176 46H88.0406L84.7191 41.6255H83.7116V46H82.3921ZM83.7116 40.501H85.0766C85.588 40.501 86.0278 40.4165 86.3961 40.2475C86.7645 40.0785 87.0483 39.838 87.2476 39.526C87.447 39.2097 87.5466 38.8348 87.5466 38.4015C87.5466 37.7558 87.3278 37.251 86.8901 36.887C86.4568 36.523 85.8523 36.341 85.0766 36.341H83.7116V40.501ZM94.2978 46V35.275H99.8683V36.4385H95.6173V40.046H99.7123V41.203H95.6173V44.8365H99.8683V46H94.2978Z" fill="#146655"></path></svg>