<svg xmlns="http://www.w3.org/2000/svg" width="106" height="54" viewBox="0 0 106 54" fill="none"><circle cx="23.5" cy="30.5" r="23.5" fill="#FFF7EB"></circle><path d="M8.76437 31.7812H11.4206L11.4362 10.3125H8.76437V9.09375H20.5456C22.9935 9.09375 24.8112 9.65625 25.9987 10.7812C27.1967 11.8958 27.7956 13.3333 27.7956 15.0938C27.7956 17.1458 26.8477 18.6615 24.9519 19.6406C24.3894 19.9323 23.7956 20.1615 23.1706 20.3281C25.181 20.5677 26.7175 21.2135 27.78 22.2656C28.8425 23.3177 29.3737 24.6094 29.3737 26.1406C29.3737 28.2448 28.6029 29.9167 27.0612 31.1562C25.53 32.3854 23.3373 33 20.4831 33H8.76437V31.7812ZM19.4675 20C21.7279 20 23.0769 19.0312 23.5144 17.0938C23.6498 16.5104 23.7175 15.8854 23.7175 15.2188C23.7175 13.6354 23.4623 12.4896 22.9519 11.7812C22.2644 10.8021 20.9623 10.3125 19.0456 10.3125H15.6394V20H19.4675ZM19.2644 31.7812C21.1602 31.7812 22.6081 31.3281 23.6081 30.4219C24.6185 29.5156 25.1237 28.2292 25.1237 26.5625C25.1237 24.1146 24.1498 22.4792 22.2019 21.6562C21.4935 21.3542 20.629 21.2031 19.6081 21.2031H15.6394V31.7812H19.2644ZM38.2181 19.1719C39.8952 17.5573 41.7077 16.75 43.6556 16.75C44.2806 16.75 44.8327 16.9583 45.3119 17.375C45.791 17.7917 46.0306 18.3281 46.0306 18.9844C46.0306 19.6302 45.8275 20.1562 45.4212 20.5625C45.015 20.9688 44.5202 21.1719 43.9369 21.1719C43.3535 21.1719 42.8587 20.974 42.4525 20.5781C42.0567 20.1719 41.8587 19.6719 41.8587 19.0781C41.8587 18.8385 41.9004 18.5938 41.9837 18.3438C40.4733 18.8021 39.2181 19.5781 38.2181 20.6719V31.7969H41.64V33H31.7962V31.7969H34.1244V18.2344H31.7806V17.0156H38.2181V19.1719ZM57.75 31.2344C56.5417 32.6198 54.9219 33.3125 52.8906 33.3125C51.349 33.3125 50.0208 32.8854 48.9062 32.0312C47.7917 31.1667 47.2344 30.0417 47.2344 28.6562C47.2344 27.2604 47.7812 26.1667 48.875 25.375C49.9688 24.5729 51.375 24.1719 53.0938 24.1719C54.8229 24.1719 56.2656 24.6042 57.4219 25.4688V21.75C57.4219 20.4896 57.2656 19.6354 56.9531 19.1875C56.6406 18.7396 56.2708 18.4271 55.8438 18.25C55.4271 18.0729 54.9635 17.9844 54.4531 17.9844C53.651 17.9844 52.974 18.0781 52.4219 18.2656C51.8698 18.4427 51.5 18.625 51.3125 18.8125C51.7917 18.9583 52.1615 19.3229 52.4219 19.9062C52.5052 20.1146 52.5469 20.3646 52.5469 20.6562C52.5469 21.2292 52.3385 21.7083 51.9219 22.0938C51.5052 22.4688 51.0885 22.6562 50.6719 22.6562C49.9427 22.6562 49.375 22.4635 48.9688 22.0781C48.5625 21.6927 48.3594 21.2292 48.3594 20.6875C48.3594 20.1458 48.4583 19.7031 48.6562 19.3594C48.8542 19.0052 49.1198 18.6875 49.4531 18.4062C50.0885 17.875 50.8854 17.4688 51.8438 17.1875C52.8125 16.9062 53.7188 16.7656 54.5625 16.7656C56.9062 16.7656 58.6406 17.2396 59.7656 18.1875C60.8906 19.1354 61.4531 20.4583 61.4531 22.1562V30.4844C61.4531 31.349 61.6667 31.7812 62.0938 31.7812C62.5208 31.7812 62.9323 31.5208 63.3281 31L64.1406 31.6719C63.4323 32.7448 62.276 33.2812 60.6719 33.2812C60.1094 33.2812 59.5365 33.1042 58.9531 32.75C58.3802 32.3958 57.9792 31.8906 57.75 31.2344ZM57.4688 26.8594C56.5833 25.9948 55.6146 25.5625 54.5625 25.5625C53.5104 25.5625 52.7188 25.8125 52.1875 26.3125C51.6562 26.8021 51.3906 27.5938 51.3906 28.6875C51.3906 30.3021 51.9583 31.2812 53.0938 31.625C53.4167 31.7292 53.7448 31.7812 54.0781 31.7812C55.026 31.7812 55.9323 31.4167 56.7969 30.6875C57.0469 30.4688 57.2708 30.2344 57.4688 29.9844V26.8594ZM75.9381 18.2344C74.2402 18.2344 72.7038 19.0208 71.3288 20.5938V31.7812H74.1725V33H64.735V31.7812H67.2663V18.2344H64.7194V17.0156H71.3288V19.0156C72.8913 17.5052 74.6777 16.75 76.6881 16.75C78.0735 16.75 79.3027 17.1042 80.3756 17.8125C81.761 18.7292 82.4538 20.1875 82.4538 22.1875V31.7812H84.985V33H75.5475V31.7812H78.3913V21.875C78.3913 20.6562 78.261 19.8281 78.0006 19.3906C77.7506 18.9531 77.4642 18.651 77.1413 18.4844C76.8288 18.3177 76.4277 18.2344 75.9381 18.2344ZM99.0013 31.375C97.7721 32.6667 95.9335 33.3125 93.4856 33.3125C92.6731 33.3125 91.819 33.1562 90.9231 32.8438C90.0377 32.5208 89.2565 32.0208 88.5794 31.3438C87.9127 30.6667 87.3815 29.8073 86.9856 28.7656C86.6002 27.7135 86.4075 26.5 86.4075 25.125C86.4075 22.5417 87.1627 20.5 88.6731 19C90.1835 17.5 92.0273 16.75 94.2044 16.75C95.5794 16.75 96.8502 17.0312 98.0169 17.5938C98.3919 17.7708 98.72 17.9688 99.0013 18.1875V7.90625H95.7669V6.6875H103.064V31.7812H105.376V33H99.0013V31.375ZM94.8606 18.0938C92.1419 18.0938 90.7825 20.3854 90.7825 24.9688C90.7825 28.375 91.5169 30.5208 92.9856 31.4062C93.496 31.7188 94.1419 31.875 94.9231 31.875C95.7148 31.8646 96.47 31.6458 97.1888 31.2188C97.9179 30.7917 98.5221 30.2188 99.0013 29.5V19.8438C98.1992 19.0104 97.1783 18.4688 95.9388 18.2188C95.5638 18.1354 95.2044 18.0938 94.8606 18.0938Z" fill="#146655"></path><path d="M63.2914 48V36.45H64.3554L70.5574 46.187V36.45H71.6214V48H70.5574L64.3554 38.277V48H63.2914ZM77.792 48.224C77.12 48.224 76.5133 48.0607 75.972 47.734C75.4353 47.4027 75.0083 46.95 74.691 46.376C74.3783 45.802 74.222 45.1463 74.222 44.409C74.222 43.681 74.376 43.0323 74.684 42.463C74.9966 41.889 75.4213 41.4363 75.958 41.105C76.4993 40.7737 77.1106 40.608 77.792 40.608C78.4406 40.608 79.0286 40.7597 79.556 41.063C80.0833 41.3663 80.4846 41.7863 80.76 42.323V40.832H81.782V48H80.76V46.488C80.452 47.0293 80.039 47.454 79.521 47.762C79.003 48.07 78.4266 48.224 77.792 48.224ZM78.044 47.335C78.5806 47.335 79.0543 47.2113 79.465 46.964C79.8803 46.712 80.207 46.3667 80.445 45.928C80.683 45.4847 80.802 44.9807 80.802 44.416C80.802 43.8467 80.683 43.3427 80.445 42.904C80.2116 42.4653 79.8873 42.1223 79.472 41.875C79.0566 41.623 78.5806 41.497 78.044 41.497C77.5073 41.497 77.0313 41.623 76.616 41.875C76.2006 42.1223 75.874 42.4653 75.636 42.904C75.398 43.3427 75.279 43.8467 75.279 44.416C75.279 44.9807 75.398 45.4847 75.636 45.928C75.874 46.3667 76.2006 46.712 76.616 46.964C77.0313 47.2113 77.5073 47.335 78.044 47.335ZM84.5155 48V40.832H85.5375V41.812C85.8221 41.4153 86.1628 41.1167 86.5595 40.916C86.9561 40.7107 87.3995 40.608 87.8895 40.608C88.4775 40.608 88.9885 40.7433 89.4225 41.014C89.8611 41.2847 90.1645 41.6533 90.3325 42.12C90.6078 41.6627 90.9578 41.2963 91.3825 41.021C91.8118 40.7457 92.3205 40.608 92.9085 40.608C93.4171 40.608 93.8698 40.713 94.2665 40.923C94.6631 41.1283 94.9735 41.4317 95.1975 41.833C95.4261 42.2297 95.5405 42.715 95.5405 43.289V48H94.5185V43.576C94.5185 42.9227 94.3481 42.4047 94.0075 42.022C93.6668 41.6393 93.2118 41.448 92.6425 41.448C92.2505 41.448 91.8958 41.5343 91.5785 41.707C91.2611 41.8797 91.0091 42.1037 90.8225 42.379C90.6358 42.6497 90.5425 42.9297 90.5425 43.219V48H89.5205V43.471C89.5205 42.8503 89.3501 42.358 89.0095 41.994C88.6735 41.63 88.2278 41.448 87.6725 41.448C87.2805 41.448 86.9211 41.532 86.5945 41.7C86.2725 41.8633 86.0158 42.0757 85.8245 42.337C85.6331 42.5983 85.5375 42.8667 85.5375 43.142V48H84.5155ZM101.513 48.224C100.762 48.224 100.09 48.0583 99.4974 47.727C98.9094 47.3957 98.4474 46.9453 98.1114 46.376C97.7754 45.802 97.6074 45.158 97.6074 44.444C97.6074 43.9073 97.7031 43.408 97.8944 42.946C98.0904 42.4793 98.3611 42.071 98.7064 41.721C99.0518 41.371 99.4531 41.098 99.9104 40.902C100.368 40.706 100.855 40.608 101.373 40.608C102.083 40.608 102.713 40.7643 103.263 41.077C103.819 41.385 104.257 41.812 104.579 42.358C104.906 42.904 105.079 43.534 105.097 44.248C105.097 44.304 105.095 44.3507 105.09 44.388C105.09 44.4207 105.086 44.4627 105.076 44.514H98.6224C98.6224 45.074 98.7484 45.5687 99.0004 45.998C99.2524 46.4273 99.5978 46.7657 100.036 47.013C100.48 47.2557 100.986 47.377 101.555 47.377C102.097 47.377 102.582 47.265 103.011 47.041C103.445 46.8123 103.807 46.4857 104.096 46.061L104.852 46.467C104.512 47.0223 104.047 47.454 103.459 47.762C102.876 48.07 102.227 48.224 101.513 48.224ZM98.6784 43.744H104.075C104.015 43.296 103.858 42.9017 103.606 42.561C103.354 42.2157 103.035 41.945 102.647 41.749C102.265 41.553 101.845 41.455 101.387 41.455C100.916 41.455 100.487 41.553 100.099 41.749C99.7121 41.9403 99.3924 42.2087 99.1404 42.554C98.8931 42.8947 98.7391 43.2913 98.6784 43.744Z" fill="#A1411E"></path></svg>